<?xml version="1.0"?>
<svg xmlns="http://www.w3.org/2000/svg" id="Capa_1" enable-background="new 0 0 512 512" height="512px" viewBox="0 0 512 512" width="512px" class=""><g><g><path d="m512 158.353h-256l-20.016 118.341 20.016 198.409h256z" fill="#07485e" data-original="#07485E" class="" style="fill:#0E80B1" data-old_color="#07485e"/><path d="m0 158.353h256v316.75h-256z" fill="#0b799d" data-original="#0B799D" class="" style="fill:#0E96C2" data-old_color="#0b799d"/><path d="m471.968 118.321h-215.968l-20.016 158.375 20.016 158.375h215.968z" fill="#e1ebf0" data-original="#E1EBF0" class="active-path" data-old_color="#e1ebf0" style="fill:#EBF2F6"/><path d="m40.032 118.321h215.968v316.75h-215.968z" fill="#fff5f5" data-original="#FFF5F5" class="" style="fill:#FFF5F5"/><g fill="#87a0af"><path d="m286.024 317.7h155.92v30h-155.92z" data-original="#87A0AF" class=""/><path d="m286.024 253.915h155.92v30h-155.92z" data-original="#87A0AF" class=""/><path d="m286.024 190.129h155.92v30h-155.92z" data-original="#87A0AF" class=""/></g><path d="m70.056 317.7h155.92v30h-155.92z" fill="#b4d2d7" data-original="#B4D2D7" class=""/><path d="m70.056 253.915h155.92v30h-155.92z" fill="#b4d2d7" data-original="#B4D2D7" class=""/><path d="m70.056 190.129h155.92v30h-155.92z" fill="#b4d2d7" data-original="#B4D2D7" class=""/><path d="m303.911 36.897c-19.125 0-36.273 8.459-47.911 21.839l-20.016 69.593 20.016 116.363s111.385-53.369 111.385-144.321c0-35.056-28.419-63.474-63.474-63.474z" fill="#e50058" data-original="#E50058" class=""/><path d="m208.089 36.897c-35.056 0-63.474 28.418-63.474 63.474 0 90.951 111.385 144.321 111.385 144.321v-185.956c-11.637-13.38-28.786-21.839-47.911-21.839z" fill="#ff415b" data-original="#FF415B" class="" style="fill:#FF415B" data-old_color="#ff415b"/></g></g> </svg>
